<?xml version="1.0" encoding="utf-8"?>
<!-- Generator: Adobe Illustrator 18.0.0, SVG Export Plug-In . SVG Version: 6.00 Build 0)  -->
<!DOCTYPE svg PUBLIC "-//W3C//DTD SVG 1.1//EN" "http://www.w3.org/Graphics/SVG/1.1/DTD/svg11.dtd">
<svg version="1.1" id="Layer_1" xmlns="http://www.w3.org/2000/svg" xmlns:xlink="http://www.w3.org/1999/xlink" x="0px" y="0px"
	 viewBox="0 0 219.8 219.7" enable-background="new 0 0 219.8 219.7" xml:space="preserve">
<path fill="#525252" d="M54.9,41.5L0,84l42.1,135.8H78c0,0-23-12.1-23-54.1C54.9,128.8,54.9,41.5,54.9,41.5z"/>
<path fill="#525252" d="M164.8,41.5L219.8,84l-42.1,135.8h-35.9c0,0,23-12.1,23-54.1C164.8,128.8,164.8,41.5,164.8,41.5z"/>
<path fill="#525252" d="M110.3,0L70.4,30.3h23.5v147.9c0,0,0,20.5,16.4,20.5s16.4-20.5,16.4-20.5V30.3h23.5L110.3,0z"/>
</svg>
